#N canvas 62 141 322 485 10;
#X floatatom 34 119 5 0 0 0 - - -;
#X obj 16 21 inlet x1;
#X obj 80 21 inlet y1;
#X obj 168 23 inlet x2;
#X obj 230 23 inlet y2;
#X obj 46 388 outlet distanza;
#X text 77 103 ArcTangente[(y2-y1)/(x2-x1)];
#X obj 34 146 / 3.14;
#X obj 34 170 * 180;
#X obj 34 78 expr atan(($f4-$f2)/($f3-$f1));
#X floatatom 35 216 5 0 0 0 - - -;
#X obj 36 195 + 0;
#X floatatom 45 320 5 0 0 0 - - -;
#X obj 73 260 expr 90 - $f1;
#X obj 29 260 + 90;
#X obj 35 237 moses 0;
#X obj 29 285 * -1;
#X obj 45 358 * -1;
#X connect 0 0 7 0;
#X connect 1 0 9 0;
#X connect 2 0 9 1;
#X connect 3 0 9 2;
#X connect 4 0 9 3;
#X connect 7 0 8 0;
#X connect 8 0 11 0;
#X connect 9 0 0 0;
#X connect 10 0 15 0;
#X connect 11 0 10 0;
#X connect 12 0 17 0;
#X connect 13 0 12 0;
#X connect 14 0 16 0;
#X connect 15 0 14 0;
#X connect 15 1 13 0;
#X connect 16 0 12 0;
#X connect 17 0 5 0;
