#N canvas 80 191 450 300 10;
#X obj 200 112 color 1 1 1 0.5;
#X obj 200 91 gemhead 70;
#X obj 200 133 alpha;
#N canvas 491 128 737 555 rectangleR 0;
#X obj 8 5 inlet;
#X obj 51 7 inlet;
#X obj 68 334 translateXYZ;
#X obj 215 38 unpack 0 0 0 0;
#X obj 298 100 -;
#X obj 334 101 -;
#X obj 334 175 abs;
#X obj 298 176 abs;
#X floatatom 194 61 5 0 0 3 min_x - -;
#X floatatom 236 62 5 0 0 3 min_y - -;
#X floatatom 308 65 5 0 0 3 max_x - -;
#X floatatom 348 65 5 0 0 3 max_y - -;
#X floatatom 298 205 5 0 0 0 - - -;
#X floatatom 334 204 5 0 0 0 - - -;
#X floatatom 176 213 5 0 0 3 x_gem - -;
#X floatatom 213 213 5 0 0 3 y_gem - -;
#X obj 68 372 rectangle 0.1 0.1;
#X floatatom 298 125 5 0 0 0 - - -;
#X floatatom 334 125 5 0 0 0 - - -;
#X obj 104 6 inlet drawtype;
#X obj 334 149 * 4;
#X obj 298 150 * 4;
#X obj 177 111 +;
#X obj 213 112 +;
#X text 239 147 0..2;
#X obj 177 146 - 1;
#X obj 177 169 * 4;
#X obj 213 145 - 1;
#X obj 213 168 * -4;
#X text 240 167 -4..+4;
#X obj 264 372 outlet x_foot;
#X floatatom 262 334 5 0 0 0 - - -;
#X floatatom 357 332 5 0 0 0 - - -;
#X obj 357 372 outlet y_foot;
#X obj 469 275 translateXYZ;
#X obj 468 309 circle 0.1;
#X obj 469 233 gemhead;
#X obj 357 302 -;
#X obj 334 239 / 1;
#X obj 469 196 tgl 15 0 empty empty empty 17 7 0 10 -262144 -1 -1 0
1;
#X connect 0 0 2 0;
#X connect 1 0 3 0;
#X connect 2 0 16 0;
#X connect 3 0 8 0;
#X connect 3 1 9 0;
#X connect 3 2 10 0;
#X connect 3 3 11 0;
#X connect 4 0 17 0;
#X connect 5 0 18 0;
#X connect 6 0 13 0;
#X connect 7 0 12 0;
#X connect 8 0 4 0;
#X connect 8 0 22 0;
#X connect 9 0 5 0;
#X connect 9 0 23 0;
#X connect 10 0 4 1;
#X connect 10 0 22 1;
#X connect 11 0 5 1;
#X connect 11 0 23 1;
#X connect 12 0 16 1;
#X connect 13 0 16 2;
#X connect 13 0 38 0;
#X connect 14 0 2 1;
#X connect 14 0 31 0;
#X connect 15 0 2 2;
#X connect 15 0 37 0;
#X connect 17 0 21 0;
#X connect 18 0 20 0;
#X connect 19 0 16 0;
#X connect 20 0 6 0;
#X connect 21 0 7 0;
#X connect 22 0 25 0;
#X connect 23 0 27 0;
#X connect 25 0 26 0;
#X connect 26 0 14 0;
#X connect 27 0 28 0;
#X connect 28 0 15 0;
#X connect 31 0 30 0;
#X connect 31 0 34 1;
#X connect 32 0 33 0;
#X connect 32 0 34 2;
#X connect 34 0 35 0;
#X connect 36 0 34 0;
#X connect 37 0 32 0;
#X connect 38 0 37 1;
#X connect 39 0 36 0;
#X restore 200 197 pd rectangleR;
#X msg 371 130 draw line;
#X msg 372 154 draw fill;
#X obj 43 29 inlet blobinformation;
#X obj 350 27 inlet drawtype;
#X obj 218 28 inlet colorRGBA;
#X obj 155 230 outlet x_foot;
#X obj 248 230 outlet y_foot;
#X obj 203 63 si_gem_randomcolor;
#X connect 0 0 2 0;
#X connect 1 0 0 0;
#X connect 2 0 3 0;
#X connect 3 0 9 0;
#X connect 3 1 10 0;
#X connect 4 0 3 2;
#X connect 5 0 3 2;
#X connect 6 0 3 1;
#X connect 7 0 3 2;
#X connect 8 0 0 1;
#X connect 11 3 0 1;
