#N canvas 373 251 450 366 10;
#X obj 200 91 gemhead 70;
#X obj 217 151 alpha;
#X msg 371 130 draw line;
#X msg 372 154 draw fill;
#X obj 350 27 inlet drawtype;
#X obj 218 28 inlet colorRGBA;
#X obj 203 63 si_gem_randomcolor;
#X obj 43 29 inlet x;
#X obj 97 30 inlet y;
#X floatatom 44 67 5 0 0 3 - - -;
#X floatatom 86 68 5 0 0 3 - - -;
#X floatatom 44 157 5 0 0 3 x_gem - -;
#X floatatom 81 157 5 0 0 3 y_gem - -;
#X obj 46 111 - 1;
#X obj 82 110 - 1;
#X obj 32 293 outlet gemlist;
#X obj 32 218 translateXYZ 0 0 0;
#X obj 85 88 * 2;
#X obj 81 133 * 4;
#X obj 46 134 * 4;
#X obj 45 89 * 2;
#X obj 200 112 color 1 1 0 0.5;
#X obj 31 254 circle 0.1;
#X connect 0 0 21 0;
#X connect 2 0 22 0;
#X connect 3 0 22 0;
#X connect 4 0 22 0;
#X connect 5 0 21 1;
#X connect 6 0 21 1;
#X connect 7 0 9 0;
#X connect 8 0 10 0;
#X connect 9 0 20 0;
#X connect 10 0 17 0;
#X connect 11 0 16 1;
#X connect 12 0 16 2;
#X connect 13 0 19 0;
#X connect 14 0 18 0;
#X connect 16 0 22 0;
#X connect 17 0 14 0;
#X connect 18 0 12 0;
#X connect 19 0 11 0;
#X connect 20 0 13 0;
#X connect 21 0 16 0;
#X connect 22 0 15 0;
