#N canvas 4 107 691 489 10;
#X obj 38 54 inlet;
#X text 35 30 gem list;
#X obj 111 55 inlet;
#X obj 156 56 inlet;
#X obj 200 57 inlet;
#X obj 300 57 inlet;
#X text 298 38 color;
#X text 33 -3 Da pix_blob escono x \, y del centro e size \, tutti
valori da 0 a 1;
#X text 109 34 X \, Y \, Size;
#X obj 109 176 -;
#X obj 179 147 / 2;
#X obj 155 176 -;
#X obj 98 211 +;
#X obj 139 210 +;
#X obj 182 92 t f f f;
#X floatatom 168 288 5 0 0 0 - - -;
#X floatatom 203 288 5 0 0 0 - - -;
#X floatatom 241 288 5 0 0 0 - - -;
#X text 61 253 X \, Y \, Size;
#X text 86 401 X \, Y \, X2 \, Y2;
#X obj 88 422 outlet;
#X obj 133 423 outlet;
#X obj 177 424 outlet;
#X obj 222 425 outlet;
#X obj 379 57 inlet;
#X obj 424 58 inlet;
#X obj 468 59 inlet;
#X text 377 36 W \, H \, X \, Y \, Z;
#X obj 508 60 inlet;
#X obj 552 61 inlet;
#X obj 49 374 si_gem_rc4 . . . . . . .;
#X obj 598 61 inlet WHXYZ;
#X obj 524 119 unpack f f f f f;
#X obj 497 226 loadbang;
#X obj 495 316 pack f f f;
#X obj 497 253 random 255;
#X obj 497 278 / 255;
#X obj 566 252 random 255;
#X obj 566 277 / 255;
#X obj 426 255 random 255;
#X obj 426 280 / 255;
#X obj 23 449 outlet gemlist;
#X obj 497 200 bng 15 250 50 0 empty empty empty 17 7 0 10 -262144
-1 -1;
#X floatatom 576 185 5 0 0 0 - - -;
#X connect 0 0 30 0;
#X connect 2 0 9 0;
#X connect 2 0 15 0;
#X connect 3 0 11 0;
#X connect 3 0 16 0;
#X connect 4 0 14 0;
#X connect 4 0 17 0;
#X connect 5 0 30 5;
#X connect 9 0 12 0;
#X connect 9 0 30 1;
#X connect 10 0 9 1;
#X connect 10 0 11 1;
#X connect 11 0 13 0;
#X connect 11 0 30 2;
#X connect 12 0 30 3;
#X connect 13 0 30 4;
#X connect 14 0 10 0;
#X connect 14 1 12 1;
#X connect 14 2 13 1;
#X connect 24 0 30 6;
#X connect 25 0 30 7;
#X connect 26 0 30 8;
#X connect 28 0 30 9;
#X connect 29 0 30 10;
#X connect 30 0 41 0;
#X connect 30 1 20 0;
#X connect 30 2 21 0;
#X connect 30 3 22 0;
#X connect 30 4 23 0;
#X connect 31 0 32 0;
#X connect 32 0 30 6;
#X connect 32 0 43 0;
#X connect 32 1 30 7;
#X connect 32 2 30 8;
#X connect 32 3 30 9;
#X connect 32 4 30 10;
#X connect 33 0 35 0;
#X connect 33 0 39 0;
#X connect 33 0 37 0;
#X connect 34 0 30 5;
#X connect 35 0 36 0;
#X connect 36 0 34 1;
#X connect 37 0 38 0;
#X connect 38 0 34 2;
#X connect 39 0 40 0;
#X connect 40 0 34 0;
#X connect 42 0 33 0;
#X coords 0 0 1 1 153 150 0;
