#N canvas 354 93 805 507 10;
#X obj 28 44 inlet;
#X text 25 20 gem list;
#X floatatom 38 159 4 0 0 1 width - -;
#X floatatom 48 141 4 0 0 1 height - -;
#X floatatom 58 123 4 0 0 1 bytes/pixel - -;
#X floatatom 68 106 5 0 0 1 coulorspace - -;
#X obj 28 85 pix_info . . . .;
#X obj 101 45 inlet;
#X obj 146 46 inlet;
#X obj 190 47 inlet;
#X obj 235 48 inlet;
#X obj 34 466 outlet;
#X text 99 24 X \, Y \, X2 \, Y2;
#X obj 290 47 inlet;
#X text 288 28 color;
#X obj 43 378 loadbang;
#X floatatom 261 370 5 0 0 0 - - -;
#X floatatom 296 370 5 0 0 0 - - -;
#X floatatom 334 370 5 0 0 0 - - -;
#X floatatom 370 371 5 0 0 0 - - -;
#X floatatom 261 412 5 0 0 0 - - -;
#X floatatom 296 412 5 0 0 0 - - -;
#X floatatom 334 412 5 0 0 0 - - -;
#X floatatom 370 413 5 0 0 0 - - -;
#X text 275 386 in: X1 \, Y1 \, X2 \, Y2;
#X text 273 429 out: X1 \, Y1 \, X2 \, Y2;
#X text 146 447 X \, Y \, X2 \, Y2;
#X obj 148 468 outlet;
#X obj 193 469 outlet;
#X obj 237 470 outlet;
#X obj 282 471 outlet;
#X msg 43 402 draw line;
#X obj 34 439 rectangle;
#X obj 372 49 inlet;
#X obj 417 50 inlet;
#X obj 461 51 inlet;
#X text 370 28 W \, H \, X \, Y \, Z;
#X obj 501 52 inlet;
#X obj 545 53 inlet;
#X obj 28 326 translateXYZ;
#X obj 28 65 separator;
#X obj 102 241 *;
#X obj 102 268 +;
#X obj 146 240 *;
#X obj 146 267 +;
#X obj 189 241 *;
#X obj 189 268 +;
#X obj 233 240 *;
#X obj 233 267 +;
#X obj 109 358 -;
#X obj 137 360 -;
#X obj 29 281 color;
#X obj 43 208 loadbang;
#X msg 43 232 0 1 0;
#X floatatom 372 200 5 0 0 0 - - -;
#X floatatom 409 201 5 0 0 0 - - -;
#X floatatom 444 201 5 0 0 0 - - -;
#X floatatom 482 201 5 0 0 0 - - -;
#X floatatom 518 202 5 0 0 0 - - -;
#X floatatom 107 394 5 0 0 0 - - -;
#X floatatom 143 395 5 0 0 0 - - -;
#X connect 0 0 40 0;
#X connect 6 0 51 0;
#X connect 6 1 2 0;
#X connect 6 2 3 0;
#X connect 6 3 4 0;
#X connect 6 4 5 0;
#X connect 7 0 16 0;
#X connect 7 0 41 0;
#X connect 8 0 17 0;
#X connect 8 0 43 0;
#X connect 9 0 18 0;
#X connect 9 0 45 0;
#X connect 10 0 19 0;
#X connect 10 0 47 0;
#X connect 13 0 51 1;
#X connect 15 0 31 0;
#X connect 31 0 32 0;
#X connect 32 0 11 0;
#X connect 33 0 41 1;
#X connect 33 0 45 1;
#X connect 33 0 54 0;
#X connect 34 0 43 1;
#X connect 34 0 47 1;
#X connect 34 0 55 0;
#X connect 35 0 39 1;
#X connect 35 0 42 1;
#X connect 35 0 46 1;
#X connect 35 0 56 0;
#X connect 37 0 39 2;
#X connect 37 0 48 1;
#X connect 37 0 44 1;
#X connect 37 0 57 0;
#X connect 38 0 39 3;
#X connect 38 0 58 0;
#X connect 39 0 32 0;
#X connect 40 0 6 0;
#X connect 41 0 42 0;
#X connect 42 0 27 0;
#X connect 42 0 20 0;
#X connect 42 0 49 1;
#X connect 43 0 44 0;
#X connect 44 0 28 0;
#X connect 44 0 21 0;
#X connect 44 0 50 1;
#X connect 45 0 46 0;
#X connect 46 0 29 0;
#X connect 46 0 22 0;
#X connect 46 0 49 0;
#X connect 47 0 48 0;
#X connect 48 0 30 0;
#X connect 48 0 23 0;
#X connect 48 0 50 0;
#X connect 49 0 32 1;
#X connect 49 0 59 0;
#X connect 50 0 32 2;
#X connect 50 0 60 0;
#X connect 51 0 39 0;
#X connect 52 0 53 0;
#X connect 53 0 51 1;
#X coords 0 0 1 1 150 100 0;
