#N canvas 0 0 620 300 10;
#X obj 155 10 inlet topright;
#X obj 5 186 outlet topleft;
#X obj 155 186 outlet topright;
#X obj 298 182 outlet bottomright;
#X obj 436 10 inlet bottomright;
#X obj 436 182 outlet bottomright;
#X obj 298 10 inlet bottomleft;
#X obj 5 8 inlet topleft;
#X obj 5 82 si_view 0;
#X obj 155 83 si_view 1;
#X obj 298 84 si_view 2;
#X obj 436 84 si_view 3;
#X connect 0 0 9 0;
#X connect 4 0 11 0;
#X connect 6 0 10 0;
#X connect 7 0 8 0;
#X connect 8 0 1 0;
#X connect 9 0 2 0;
#X connect 10 0 3 0;
#X connect 11 0 5 0;
