#N canvas 407 272 779 300 10;
#X obj 298 84 si_gem_textrect;
#X obj 368 36 loadbang;
#X obj 155 83 si_gem_textrect;
#X obj 207 36 loadbang;
#X obj 5 82 si_gem_textrect;
#X obj 5 186 outlet topleft;
#X obj 155 186 outlet topright;
#X obj 298 182 outlet bottomright;
#X obj 436 84 si_gem_textrect;
#X obj 488 36 loadbang;
#X obj 436 182 outlet bottomright;
#X obj 22 35 loadbang;
#X obj 5 8 inlet main;
#X msg 172 59 1;
#X msg 316 60 1;
#X obj 155 10 inlet bottomleft;
#X msg 343 60 -1;
#X msg 446 61 1;
#X obj 577 83 si_gem_textrect;
#X obj 629 35 loadbang;
#X obj 577 9 inlet bottomright;
#X obj 577 181 outlet bottomright;
#X msg 587 60 1;
#X obj 298 10 inlet bottomleftcent;
#X obj 436 9 inlet bottomrightcent;
#X msg 208 58 -3;
#X msg 238 59 -3;
#X msg 368 61 -3;
#X msg 506 61 -3;
#X msg 476 60 1;
#X msg 617 59 3;
#X msg 647 60 -3;
#X msg 49 59 3;
#X msg 76 59 0;
#X msg 105 59 1;
#X msg 22 59 4;
#X connect 0 0 7 0;
#X connect 1 0 27 0;
#X connect 1 0 14 0;
#X connect 1 0 16 0;
#X connect 2 0 6 0;
#X connect 3 0 25 0;
#X connect 3 0 13 0;
#X connect 3 0 26 0;
#X connect 4 0 5 0;
#X connect 8 0 10 0;
#X connect 9 0 28 0;
#X connect 9 0 29 0;
#X connect 9 0 17 0;
#X connect 11 0 35 0;
#X connect 11 0 32 0;
#X connect 11 0 34 0;
#X connect 11 0 33 0;
#X connect 12 0 4 0;
#X connect 13 0 2 1;
#X connect 13 0 2 2;
#X connect 14 0 0 1;
#X connect 14 0 0 2;
#X connect 15 0 2 0;
#X connect 16 0 0 3;
#X connect 17 0 8 1;
#X connect 17 0 8 2;
#X connect 18 0 21 0;
#X connect 19 0 31 0;
#X connect 19 0 30 0;
#X connect 19 0 22 0;
#X connect 20 0 18 0;
#X connect 22 0 18 1;
#X connect 22 0 18 2;
#X connect 23 0 0 0;
#X connect 24 0 8 0;
#X connect 25 0 2 3;
#X connect 26 0 2 4;
#X connect 27 0 0 4;
#X connect 28 0 8 4;
#X connect 29 0 8 3;
#X connect 30 0 18 3;
#X connect 31 0 18 4;
#X connect 32 0 4 2;
#X connect 33 0 4 3;
#X connect 34 0 4 4;
#X connect 35 0 4 1;
