#N canvas 0 0 450 300 10;
#X obj 83 10 loadbang;
#X obj 42 124 random 255;
#X obj 42 146 / 255;
#X obj 116 124 random 255;
#X obj 116 146 / 255;
#X obj 188 125 random 255;
#X obj 188 147 / 255;
#X obj 42 211 pack f f f;
#X obj 41 249 outlet colRGB;
#X obj 151 249 outlet R;
#X obj 212 249 outlet G;
#X obj 272 249 outlet B;
#X obj 176 9 inlet generate_new_color;
#X obj 116 66 bng 15 250 50 0 empty empty empty 17 7 0 10 -262144 -1
-1;
#X obj 185 41 time;
#X msg 206 76 seed \$1;
#X connect 0 0 13 0;
#X connect 1 0 2 0;
#X connect 2 0 7 0;
#X connect 2 0 9 0;
#X connect 3 0 4 0;
#X connect 4 0 7 1;
#X connect 4 0 10 0;
#X connect 5 0 6 0;
#X connect 6 0 7 2;
#X connect 6 0 11 0;
#X connect 7 0 8 0;
#X connect 12 0 13 0;
#X connect 13 0 1 0;
#X connect 13 0 3 0;
#X connect 13 0 5 0;
#X connect 13 0 14 0;
#X connect 14 3 15 0;
#X connect 15 0 5 0;
#X connect 15 0 3 0;
#X connect 15 0 1 0;
