#N canvas 0 0 450 300 10;
#X obj 69 46 inlet;
#X obj 69 92 pix_separator;
#X obj 69 118 separator;
#X obj 69 145 outlet;
#X obj 163 93 pix_separator;
#X obj 163 119 separator;
#X obj 163 146 outlet;
#X obj 256 94 pix_separator;
#X obj 256 120 separator;
#X obj 256 147 outlet;
#X connect 0 0 1 0;
#X connect 0 0 4 0;
#X connect 0 0 7 0;
#X connect 1 0 2 0;
#X connect 2 0 3 0;
#X connect 4 0 5 0;
#X connect 5 0 6 0;
#X connect 7 0 8 0;
#X connect 8 0 9 0;
