#N canvas 515 469 583 407 10;
#X obj 27 140 cnv 15 100 60 empty empty empty 20 12 0 14 -233017 -66577
0;
#X obj 101 97 bng 15 250 50 0 empty empty Carica 20 8 0 8 -262144 -1
-1;
#X msg 12 155 open \$1;
#X obj 12 132 openpanel;
#X msg 90 178 auto \$1;
#X obj 101 114 tgl 15 0 empty empty Play 20 7 0 7 -262144 -1 -1 1 1
;
#X floatatom 144 149 5 0 0 2 frame - -;
#X msg 155 180 0;
#X obj 101 148 bng 15 250 50 0 empty empty Fine 20 7 0 7 -262144 -1
-1;
#X obj 187 219 spigot;
#X obj 101 131 tgl 15 0 empty empty Loop 20 7 0 7 -262144 -1 -1 1 1
;
#X obj 211 253 unpack 0 0 0;
#X floatatom 201 276 5 0 0 3 length - -;
#X floatatom 250 276 5 0 0 3 width - -;
#X floatatom 300 276 5 0 0 3 height - -;
#X obj 115 315 outlet;
#X obj 73 246 delay 20;
#X obj 11 74 gemhead;
#X text 12 -24 Inserendo come messaggio [set 10[ si settera' l'ordine
di rendering a 10;
#X obj 51 213 pix_film;
#X obj 193 75 loadbang;
#X msg 193 99 1;
#X obj 156 27 inlet [0-1]play/pausa;
#X obj 11 30 inlet gemlist;
#X obj 504 28 inlet frame;
#X obj 441 263 outlet bang end film;
#X obj 292 27 inlet loop [0-1];
#X obj 399 27 inlet openpanel;
#X obj 17 316 outlet gemlist;
#X obj 201 316 outlet len;
#X obj 277 318 outlet w;
#X obj 339 318 outlet h;
#X text 116 346 Bang al caricamento di un filmato;
#X text 151 91 v1.1;
#X obj 73 272 bng 15 250 50 0 empty empty empty 17 7 0 10 -262144 -1
-1;
#X floatatom 60 155 5 0 0 0 - - -;
#X obj 17 283 pix_rgba;
#X obj 96 6 inlet pix_film;
#X connect 1 0 3 0;
#X connect 2 0 19 0;
#X connect 3 0 2 0;
#X connect 4 0 19 0;
#X connect 5 0 35 0;
#X connect 6 0 19 1;
#X connect 7 0 19 1;
#X connect 8 0 9 0;
#X connect 8 0 25 0;
#X connect 9 0 7 0;
#X connect 10 0 9 1;
#X connect 11 0 12 0;
#X connect 11 1 13 0;
#X connect 11 2 14 0;
#X connect 12 0 29 0;
#X connect 13 0 30 0;
#X connect 14 0 31 0;
#X connect 16 0 34 0;
#X connect 17 0 19 0;
#X connect 19 0 36 0;
#X connect 19 1 11 0;
#X connect 19 1 16 0;
#X connect 19 2 8 0;
#X connect 20 0 21 0;
#X connect 21 0 10 0;
#X connect 21 0 5 0;
#X connect 22 0 5 0;
#X connect 23 0 17 0;
#X connect 24 0 6 0;
#X connect 26 0 10 0;
#X connect 27 0 1 0;
#X connect 34 0 15 0;
#X connect 34 0 35 0;
#X connect 35 0 4 0;
#X connect 36 0 28 0;
#X connect 37 0 19 0;
#X coords 0 -1 1 1 80 90 1 100 80;
