#N canvas 23 116 315 312 10;
#X obj 105 271 gemwin;
#X msg 105 194 create;
#X msg 193 220 destroy;
#X obj 103 103 cnv 15 155 60 empty empty si_gemwin 2 8 0 14 -233017
-66577 0;
#X obj 107 127 bng 15 250 50 0 empty empty create 17 7 0 10 -262144
-1 -1;
#X obj 107 144 bng 15 250 50 0 empty empty destroy 17 7 0 10 -262144
-1 -1;
#X obj 183 129 tgl 15 0 empty render render 17 7 0 10 -262144 -1 -1
0 1;
#X obj 183 146 tgl 15 0 empty empty lighting 17 7 0 10 -262144 -1 -1
0 1;
#X msg 184 183 lighting \$1;
#X msg 193 249 0;
#X msg 128 228 1;
#X obj 193 279 send render;
#X obj 183 111 tgl 15 0 empty empty fullscreen 17 7 0 10 -262144 -1
-1 0 1;
#X msg 19 235 fullscreen \$1;
#X obj 107 36 inlet create;
#X obj 19 34 inlet gemwin;
#X obj 167 14 inlet fullscreen;
#X obj 138 58 inlet destroy;
#X connect 1 0 0 0;
#X connect 1 0 10 0;
#X connect 2 0 0 0;
#X connect 2 0 9 0;
#X connect 4 0 1 0;
#X connect 5 0 2 0;
#X connect 6 0 0 0;
#X connect 7 0 8 0;
#X connect 8 0 0 0;
#X connect 9 0 11 0;
#X connect 10 0 11 0;
#X connect 12 0 13 0;
#X connect 13 0 0 0;
#X connect 14 0 4 0;
#X connect 15 0 0 0;
#X connect 16 0 12 0;
#X connect 17 0 5 0;
#X coords 0 -1 1 1 160 65 1 100 100;
