#N canvas 451 20 467 489 10;
#X obj 49 329 si_gem_rect4;
#X obj 38 54 inlet;
#X text 35 30 gem list;
#X obj 111 55 inlet;
#X obj 156 56 inlet;
#X obj 200 57 inlet;
#X obj 300 57 inlet;
#X text 298 38 color;
#X obj 49 434 outlet;
#X text 33 -3 Da pix_blob escono x \, y del centro e size \, tutti
valori da 0 a 1;
#X text 109 34 X \, Y \, Size;
#X obj 109 176 -;
#X obj 179 147 / 2;
#X obj 155 176 -;
#X obj 98 211 +;
#X obj 139 210 +;
#X obj 182 92 t f f f;
#X floatatom 168 288 5 0 0 0 - - -;
#X floatatom 203 288 5 0 0 0 - - -;
#X floatatom 241 288 5 0 0 0 - - -;
#X text 61 253 X \, Y \, Size;
#X text 86 371 X \, Y \, X2 \, Y2;
#X obj 88 392 outlet;
#X obj 133 393 outlet;
#X obj 177 394 outlet;
#X obj 222 395 outlet;
#X connect 0 0 8 0;
#X connect 0 1 22 0;
#X connect 0 2 23 0;
#X connect 0 3 24 0;
#X connect 0 4 25 0;
#X connect 1 0 0 0;
#X connect 3 0 11 0;
#X connect 3 0 17 0;
#X connect 4 0 13 0;
#X connect 4 0 18 0;
#X connect 5 0 16 0;
#X connect 5 0 19 0;
#X connect 6 0 0 5;
#X connect 11 0 0 1;
#X connect 11 0 14 0;
#X connect 12 0 11 1;
#X connect 12 0 13 1;
#X connect 13 0 0 2;
#X connect 13 0 15 0;
#X connect 14 0 0 3;
#X connect 15 0 0 4;
#X connect 16 0 12 0;
#X connect 16 1 14 1;
#X connect 16 2 15 1;
#X coords 0 0 1 1 153 150 0;
