#N canvas 51 92 773 407 10;
#X obj 134 83 pix_separator;
#X obj 134 307 pix_texture;
#X obj 134 265 translateXYZ;
#X floatatom 8 180 3 0.1 10 2 w - -;
#X floatatom 61 180 3 -10 10 2 x - -;
#X floatatom 85 180 3 -10 10 2 y - -;
#X obj 134 330 rectangle 2 2;
#X floatatom 32 180 3 0.1 10 2 h - -;
#X floatatom 108 180 3 -10 10 2 z - -;
#X text 91 -2 width height X Y Z;
#X obj 134 59 separator;
#X text 106 377 width height X Y Z;
#X obj 134 286 spigot;
#X obj 163 182 tgl 15 0 empty empty empty 17 7 0 10 -262144 -1 -1 1
1;
#X obj 91 18 inlet W;
#X obj 146 18 inlet H;
#X obj 204 18 inlet X;
#X obj 258 18 inlet Y;
#X obj 313 19 inlet Z;
#X obj 460 19 inlet WHXYZ;
#X obj 301 115 unpack f f f f f;
#X obj 6 359 outlet gemlist;
#X obj 106 359 outlet W;
#X obj 171 359 outlet H;
#X obj 236 360 outlet X;
#X obj 299 360 outlet Y;
#X obj 360 360 outlet Z;
#X obj -1 18 inlet gemlist;
#X obj 373 299 pack f f f f f;
#X obj 418 360 outlet WHXYZ;
#X obj 367 19 inlet on1/off0;
#X obj 546 15 loadbang;
#X obj 464 250 s \$0-w;
#X obj 508 251 s \$0-h;
#X obj 553 251 s \$0-x;
#X obj 597 252 s \$0-y;
#X obj 641 252 s \$0-z;
#X obj 5 114 r \$0-w;
#X obj 49 115 r \$0-h;
#X obj 94 115 r \$0-x;
#X obj 138 116 r \$0-y;
#X obj 182 116 r \$0-z;
#X obj 436 101 \$1;
#X obj 466 101 \$2;
#X obj 497 101 \$3;
#X obj 526 101 \$4;
#X obj 556 101 \$5;
#X obj 504 72 loadbang;
#X obj 625 102 loadbang;
#X msg 622 130 2;
#X msg 652 130 -2;
#X msg 685 130 1;
#X obj 686 252 s \$0-en;
#X obj 225 116 r \$0-en;
#X connect 0 0 2 0;
#X connect 1 0 6 0;
#X connect 2 0 12 0;
#X connect 3 0 6 1;
#X connect 3 0 22 0;
#X connect 3 0 28 0;
#X connect 4 0 2 1;
#X connect 4 0 24 0;
#X connect 4 0 28 2;
#X connect 5 0 2 2;
#X connect 5 0 25 0;
#X connect 5 0 28 3;
#X connect 6 0 21 0;
#X connect 7 0 6 2;
#X connect 7 0 23 0;
#X connect 7 0 28 1;
#X connect 8 0 2 3;
#X connect 8 0 26 0;
#X connect 8 0 28 4;
#X connect 10 0 0 0;
#X connect 12 0 1 0;
#X connect 13 0 12 1;
#X connect 14 0 3 0;
#X connect 15 0 7 0;
#X connect 16 0 4 0;
#X connect 17 0 5 0;
#X connect 18 0 8 0;
#X connect 19 0 20 0;
#X connect 20 0 32 0;
#X connect 20 1 33 0;
#X connect 20 2 34 0;
#X connect 20 3 35 0;
#X connect 20 4 36 0;
#X connect 27 0 10 0;
#X connect 28 0 29 0;
#X connect 30 0 13 0;
#X connect 31 0 48 0;
#X connect 31 0 47 0;
#X connect 37 0 3 0;
#X connect 38 0 7 0;
#X connect 39 0 4 0;
#X connect 40 0 5 0;
#X connect 41 0 8 0;
#X connect 42 0 32 0;
#X connect 43 0 33 0;
#X connect 44 0 34 0;
#X connect 45 0 35 0;
#X connect 46 0 36 0;
#X connect 47 0 42 0;
#X connect 47 0 43 0;
#X connect 47 0 44 0;
#X connect 47 0 45 0;
#X connect 47 0 46 0;
#X connect 48 0 49 0;
#X connect 48 0 50 0;
#X connect 48 0 51 0;
#X connect 51 0 52 0;
#X connect 53 0 13 0;
#X coords 0 -1 1 1 180 48 1 0 152;
