#N canvas 0 0 450 399 10;
#X obj 28 335 pix_rectangle;
#X obj 28 44 inlet;
#X text 25 20 gem list;
#X floatatom 38 159 4 0 0 1 width - -;
#X floatatom 48 141 4 0 0 1 height - -;
#X floatatom 58 123 4 0 0 1 bytes/pixel - -;
#X floatatom 68 106 5 0 0 1 coulorspace - -;
#X obj 28 85 pix_info . . . .;
#X obj 101 45 inlet;
#X obj 146 46 inlet;
#X obj 190 47 inlet;
#X obj 235 48 inlet;
#X obj 28 362 outlet;
#X text 99 24 X \, Y \, X2 \, Y2;
#X obj 290 47 inlet;
#X text 288 28 color;
#X obj 104 284 loadbang;
#X obj 102 211 *;
#X obj 190 211 *;
#X obj 146 211 *;
#X obj 235 211 *;
#X obj 65 250 pack f f f f;
#X floatatom 255 266 5 0 0 0 - - -;
#X floatatom 290 266 5 0 0 0 - - -;
#X floatatom 328 266 5 0 0 0 - - -;
#X floatatom 364 267 5 0 0 0 - - -;
#X floatatom 255 308 5 0 0 0 - - -;
#X floatatom 290 308 5 0 0 0 - - -;
#X floatatom 328 308 5 0 0 0 - - -;
#X floatatom 364 309 5 0 0 0 - - -;
#X text 269 282 in: X1 \, Y1 \, X2 \, Y2;
#X text 267 325 out: X1 \, Y1 \, X2 \, Y2;
#X text 140 343 X \, Y \, X2 \, Y2;
#X obj 142 364 outlet;
#X obj 187 365 outlet;
#X obj 231 366 outlet;
#X obj 276 367 outlet;
#X msg 104 307 0 1 0 0.5;
#X msg 37 298 draw line;
#X connect 0 0 12 0;
#X connect 1 0 7 0;
#X connect 3 0 17 1;
#X connect 3 0 18 1;
#X connect 4 0 19 1;
#X connect 4 0 20 1;
#X connect 7 0 0 0;
#X connect 7 1 3 0;
#X connect 7 2 4 0;
#X connect 7 3 5 0;
#X connect 7 4 6 0;
#X connect 8 0 17 0;
#X connect 8 0 22 0;
#X connect 9 0 19 0;
#X connect 9 0 23 0;
#X connect 10 0 18 0;
#X connect 10 0 24 0;
#X connect 11 0 20 0;
#X connect 11 0 25 0;
#X connect 14 0 0 2;
#X connect 16 0 37 0;
#X connect 17 0 21 0;
#X connect 17 0 26 0;
#X connect 17 0 33 0;
#X connect 18 0 21 2;
#X connect 18 0 28 0;
#X connect 18 0 35 0;
#X connect 19 0 21 1;
#X connect 19 0 27 0;
#X connect 19 0 34 0;
#X connect 20 0 21 3;
#X connect 20 0 29 0;
#X connect 20 0 36 0;
#X connect 21 0 0 1;
#X connect 37 0 0 2;
#X connect 38 0 0 0;
#X coords 0 -1 1 1 150 100 1 250 250;
