#N canvas 450 53 908 627 10;
#X obj 267 108 gemhead;
#X msg 267 85 set \$1;
#X floatatom 115 123 5 0 0 0 - - -;
#X obj 267 151 spigot;
#X obj 151 124 tgl 15 0 empty empty head1 17 7 0 8 -262144 -1 -1 0
1;
#X obj 356 115 gemhead;
#X msg 356 92 set \$1;
#X floatatom 115 146 5 0 0 0 - - -;
#X obj 356 158 spigot;
#X obj 151 147 tgl 15 0 empty empty head2 17 7 0 8 -262144 -1 -1 0
1;
#X obj 427 111 gemhead;
#X msg 427 88 set \$1;
#X floatatom 116 169 5 0 0 0 - - -;
#X obj 427 154 spigot;
#X obj 151 173 tgl 15 0 empty empty head3 17 7 0 8 -262144 -1 -1 0
1;
#X obj 275 210 outlet;
#X obj 361 214 outlet;
#X obj 433 217 outlet;
#X obj 277 46 inlet;
#X obj 361 45 inlet;
#X obj 430 47 inlet;
#X connect 0 0 3 0;
#X connect 1 0 0 0;
#X connect 2 0 1 0;
#X connect 3 0 15 0;
#X connect 4 0 3 1;
#X connect 5 0 8 0;
#X connect 6 0 5 0;
#X connect 7 0 6 0;
#X connect 8 0 16 0;
#X connect 9 0 8 1;
#X connect 10 0 13 0;
#X connect 11 0 10 0;
#X connect 12 0 11 0;
#X connect 13 0 17 0;
#X connect 14 0 13 1;
#X connect 18 0 0 0;
#X connect 19 0 5 0;
#X connect 20 0 10 0;
#X coords 0 -1 1 1 120 120 1 100 100;
