#N canvas 769 480 450 300 10;
#X declare -lib mrpeach;
#X obj 16 13 dumpOSC 6650;
#X obj 139 9 import mrpeach;
#X obj 16 74 unpack f f;
#X floatatom 15 103 5 0 0 0 - - -;
#X floatatom 73 105 5 0 0 0 - - -;
#X obj 122 75 unpack f f;
#X floatatom 121 104 5 0 0 0 - - -;
#X floatatom 179 106 5 0 0 0 - - -;
#X obj 229 76 bng 15 250 50 0 empty empty empty 17 7 0 10 -262144 -1
-1;
#X obj 14 145 outlet x;
#X obj 72 145 outlet y;
#X obj 16 39 OSCroute /mousepressed /mousepressed_rel;
#X obj 130 145 outlet x rel [0-1];
#X obj 254 145 outlet y rel [0-1];
#X connect 0 0 11 0;
#X connect 2 0 3 0;
#X connect 2 1 4 0;
#X connect 3 0 9 0;
#X connect 4 0 10 0;
#X connect 5 0 6 0;
#X connect 5 1 7 0;
#X connect 6 0 12 0;
#X connect 7 0 13 0;
#X connect 11 0 2 0;
#X connect 11 1 5 0;
#X connect 11 2 8 0;
