#N canvas 1505 159 752 629 10;
#X declare -lib mrpeach;
#X obj 64 327 tgl 15 0 empty empty empty 0 -6 0 8 -262144 -1 -1 0 1
;
#X floatatom 80 308 5 0 0 0 - - -;
#X floatatom 104 282 5 0 0 0 - - -;
#X text 120 311 x;
#X msg 113 102 poll;
#X text 140 283 y;
#X floatatom 129 258 5 0 0 0 - - -;
#X text 162 259 delta x;
#X floatatom 146 229 5 0 0 0 - - -;
#X text 179 230 delta y;
#X text 83 328 button pressed ? (one button of course \, mac you know)
;
#X text 155 102 poll the mouse device;
#X msg 64 78 bang;
#X text 106 78 update current state;
#X msg 113 121 nopoll;
#X text 165 121 come on you guessed it right ...;
#X msg 113 149 zero;
#X text 155 151 set current pos to 0 \, 0 of our coordinate system
;
#X msg 111 174 reset;
#X text 161 174 reset 0 \, 0 to upper left corner;
#X obj 71 59 bng 15 250 50 0 empty empty empty 17 7 0 10 -262144 -1
-1;
#X obj 64 -19 loadbang;
#X obj 76 12 tgl 15 0 empty empty empty 17 7 0 10 -262144 -1 -1 1 1
;
#X obj 28 497 outlet button_pressed[0-1];
#X obj 80 524 outlet x;
#X obj 138 524 outlet y;
#X obj 64 201 cyclone/MouseState;
#X obj 230 357 inlet screen width;
#X obj 350 356 inlet screen height;
#X obj 229 429 /;
#X obj 229 486 outlet x rel [0-1];
#X obj 353 431 /;
#X obj 353 486 outlet y rel [0-1];
#X floatatom 238 458 5 0 0 0 - - -;
#X floatatom 364 458 5 0 0 0 - - -;
#X obj 269 383 loadbang;
#X msg 269 403 1280;
#X obj 389 381 loadbang;
#X msg 389 401 800;
#X obj 370 -8 import mrpeach;
#X obj 537 503 packOSC;
#X obj 597 503 loadbang;
#X obj 575 560 udpsend;
#X msg 597 532 connect 127.0.0.1 6650;
#X obj 64 365 change;
#X obj 64 419 s \$0-pressed;
#X obj 638 298 r \$0-pressed;
#X obj 638 322 bng 15 250 50 0 empty empty empty 17 7 0 10 -262144
-1 -1;
#X obj 64 392 select 1;
#X msg 638 348 1;
#X obj 537 533 bng 15 250 50 0 /mousepressed empty empty 17 7 0 10
-262144 -1 -1;
#X obj 64 39 metro 100;
#X obj 562 379 spigot;
#X msg 577 404 0;
#X obj 562 341 pack \$1 \$2;
#X msg 562 427 send /mousepressed_rel \$1 \$2;
#X obj 492 417 spigot;
#X msg 507 442 0;
#X obj 492 388 pack \$1 \$2;
#X msg 492 465 send /mousepressed \$1 \$2;
#X connect 0 0 23 0;
#X connect 0 0 44 0;
#X connect 1 0 24 0;
#X connect 1 0 29 0;
#X connect 1 0 58 0;
#X connect 2 0 25 0;
#X connect 2 0 31 0;
#X connect 2 0 58 1;
#X connect 4 0 26 0;
#X connect 12 0 26 0;
#X connect 14 0 26 0;
#X connect 16 0 26 0;
#X connect 18 0 26 0;
#X connect 21 0 22 0;
#X connect 21 0 51 0;
#X connect 22 0 51 0;
#X connect 26 0 0 0;
#X connect 26 1 1 0;
#X connect 26 2 2 0;
#X connect 26 3 6 0;
#X connect 26 4 8 0;
#X connect 27 0 29 1;
#X connect 28 0 31 1;
#X connect 29 0 30 0;
#X connect 29 0 33 0;
#X connect 31 0 32 0;
#X connect 31 0 34 0;
#X connect 33 0 54 0;
#X connect 34 0 54 1;
#X connect 35 0 36 0;
#X connect 36 0 29 1;
#X connect 37 0 38 0;
#X connect 38 0 31 1;
#X connect 40 0 42 0;
#X connect 40 0 50 0;
#X connect 41 0 43 0;
#X connect 43 0 42 0;
#X connect 44 0 48 0;
#X connect 46 0 47 0;
#X connect 47 0 49 0;
#X connect 48 0 45 0;
#X connect 49 0 52 1;
#X connect 49 0 56 1;
#X connect 51 0 12 0;
#X connect 51 0 20 0;
#X connect 52 0 53 0;
#X connect 52 0 55 0;
#X connect 53 0 52 1;
#X connect 54 0 52 0;
#X connect 55 0 40 0;
#X connect 56 0 57 0;
#X connect 56 0 59 0;
#X connect 57 0 56 1;
#X connect 58 0 56 0;
#X connect 59 0 40 0;
