#N canvas 647 59 413 590 10;
#X obj -4 61 inlet blobinformation;
#X obj 17 235 unpack 0 0 0 0 0 0 0 0;
#X obj 17 264 outlet weightedX;
#X obj 38 284 outlet weightedY;
#X obj 59 304 outlet weightedSize;
#X obj 283 491 outlet size;
#X obj 17 186 list split 8;
#X obj 116 126 * 8;
#X obj 30 89 print out;
#X obj 116 103 \$1;
#X obj 103 83 loadbang;
#X obj 198 41 inlet show;
#X obj 126 363 -;
#X obj 137 337 t b f;
#X obj 178 365 -;
#X obj 189 339 t b f;
#X obj 119 397 outlet W;
#X obj 177 397 outlet H;
#X obj 267 378 / 2;
#X obj 258 406 +;
#X obj 215 439 outlet footX;
#X obj 254 465 outlet footY;
#X obj 35 489 si_gem_rect4;
#X obj -40 542 outlet gemlist;
#X obj -35 39 inlet gemlist;
#X obj 198 139 tgl 15 0 empty empty empty 17 7 0 10 -262144 -1 -1 0
1;
#X floatatom 162 139 5 0 0 0 - - -;
#X floatatom 133 182 5 0 0 0 - - -;
#X obj 198 100 \$2;
#X obj 230 70 loadbang;
#X obj 221 139 bng 15 250 50 0 empty empty empty 17 7 0 10 -262144
-1 -1;
#X floatatom 36 339 5 0 0 0 - - -;
#X floatatom 46 362 5 0 0 0 - - -;
#X floatatom 62 383 5 0 0 0 - - -;
#X floatatom 80 405 5 0 0 0 - - -;
#X obj 101 173 + 8;
#X obj 62 145 t 0 0;
#X obj 246 226 print split;
#X obj 116 148 + 3;
#X obj 246 249 print split2;
#X obj 17 214 list split 8;
#X obj -36 416 spigot;
#X obj -14 438 spigot;
#X obj -3 390 invert;
#X obj 104 37 inlet blob_id;
#X obj -25 519 outlet blobinformation;
#X connect 0 0 6 0;
#X connect 0 0 45 0;
#X connect 1 0 2 0;
#X connect 1 1 3 0;
#X connect 1 2 4 0;
#X connect 1 3 13 0;
#X connect 1 3 19 0;
#X connect 1 3 31 0;
#X connect 1 4 15 0;
#X connect 1 4 32 0;
#X connect 1 5 12 0;
#X connect 1 5 33 0;
#X connect 1 6 14 0;
#X connect 1 6 21 0;
#X connect 1 6 34 0;
#X connect 1 7 5 0;
#X connect 6 1 40 0;
#X connect 7 0 38 0;
#X connect 9 0 26 0;
#X connect 10 0 9 0;
#X connect 11 0 28 0;
#X connect 12 0 16 0;
#X connect 12 0 18 0;
#X connect 13 0 12 0;
#X connect 13 1 12 1;
#X connect 14 0 17 0;
#X connect 15 0 14 0;
#X connect 15 1 14 1;
#X connect 18 0 19 1;
#X connect 19 0 20 0;
#X connect 22 0 23 0;
#X connect 24 0 41 0;
#X connect 24 0 42 0;
#X connect 25 0 42 1;
#X connect 25 0 43 0;
#X connect 26 0 7 0;
#X connect 28 0 25 0;
#X connect 29 0 28 0;
#X connect 30 0 22 6;
#X connect 31 0 22 1;
#X connect 32 0 22 2;
#X connect 33 0 22 3;
#X connect 34 0 22 4;
#X connect 36 0 6 1;
#X connect 36 1 35 0;
#X connect 38 0 27 0;
#X connect 38 0 36 0;
#X connect 40 0 1 0;
#X connect 41 0 23 0;
#X connect 42 0 22 0;
#X connect 43 0 41 1;
#X connect 44 0 9 0;
#X coords 0 -1 1 1 120 40 1 160 120;
