#N canvas 239 13 491 528 10;
#X obj 103 240 pix_blob;
#X floatatom 168 264 5 0 0 1 Size - -;
#X obj -69 106 si_gem_switch2;
#X obj 168 283 * 1000;
#X floatatom 168 304 5 0 0 0 - - -;
#X floatatom 188 354 5 0 0 0 - - -;
#X obj 103 160 si_pix_singlediff;
#X obj 189 330 < 1;
#X obj 253 292 counter;
#X obj 247 256 select 1;
#X floatatom 253 315 5 0 0 0 - - -;
#X obj 251 358 select 1;
#X obj 251 381 bng 15 250 50 0 empty empty empty 17 7 0 10 -262144
-1 -1;
#X obj 252 337 > 200;
#X obj -69 160 si_pix_bkgsup;
#X obj -69 75 inlet gemlist;
#X text 174 199 Using single_diff to detect motion \, in case of no
motion the background is updated;
#X msg 256 133 10;
#X obj 131 74 inlet reset;
#X obj 97 113 r reset;
#X obj 29 75 inlet threshold;
#X obj 252 403 s reset;
#X obj -69 454 outlet gemlist bkg_sup;
#X obj 72 454 outlet gemlist singlediff;
#X obj 218 73 inlet threshold singlediff;
#X connect 0 3 1 0;
#X connect 1 0 3 0;
#X connect 2 0 14 0;
#X connect 2 1 6 0;
#X connect 3 0 4 0;
#X connect 4 0 7 0;
#X connect 5 0 9 0;
#X connect 6 0 0 0;
#X connect 6 0 23 0;
#X connect 7 0 5 0;
#X connect 8 0 10 0;
#X connect 9 0 8 0;
#X connect 9 1 8 3;
#X connect 10 0 13 0;
#X connect 11 0 12 0;
#X connect 12 0 21 0;
#X connect 13 0 11 0;
#X connect 14 0 22 0;
#X connect 15 0 2 0;
#X connect 17 0 6 2;
#X connect 18 0 14 2;
#X connect 19 0 14 2;
#X connect 20 0 14 1;
#X connect 24 0 6 1;
#X coords 0 -1 1 1 162 55 1 -70 145;
