#N canvas 512 67 477 268 10;
#X obj -49 51 inlet blobinformation;
#X obj -49 103 unpack 0 0 0 0 0 0 0 0;
#X obj -49 132 outlet weightedX;
#X obj -28 152 outlet weightedY;
#X obj -7 172 outlet weightedSize;
#X obj 40 201 outlet minX;
#X obj 61 221 outlet minY;
#X obj 127 201 outlet maxX;
#X obj 144 221 outlet maxY;
#X obj 232 203 outlet size;
#X text -56 10 this extracts information of the 1st detected blob;
#X msg -49 79 \$11 \$12 \$13 \$14 \$15 \$16 \$17 \$18;
#X connect 0 0 11 0;
#X connect 1 0 2 0;
#X connect 1 1 3 0;
#X connect 1 2 4 0;
#X connect 1 3 5 0;
#X connect 1 4 6 0;
#X connect 1 5 7 0;
#X connect 1 6 8 0;
#X connect 1 7 9 0;
#X connect 11 0 1 0;
