#N canvas 125 203 467 300 10;
#X obj 33 71 pix_separator;
#X obj 123 71 pix_separator;
#X floatatom 328 102 4 0.1 10 1 frm - -;
#X obj 78 140 pix_diff;
#X obj 78 197 pix_duotone;
#X obj 225 121 hsl 100 15 0 1 0 0 empty empty empty -2 -8 0 10 -262144
-1 -1 630 1;
#X floatatom 329 120 5 0 0 1 Th - -;
#X msg 198 179 \$1 \$1 \$1;
#X obj 123 114 pix_delay;
#X text 218 137 Soglia_single_difference;
#X obj 248 42 loadbang;
#X obj 78 236 outlet gemlist;
#X obj 221 234 outlet soglia;
#X obj 67 17 inlet gemlist;
#X obj 217 10 inlet soglia;
#X obj 67 42 pix_rgba;
#X msg 248 66 0.1;
#X obj 329 11 inlet ritardo in frame;
#X connect 0 0 3 0;
#X connect 1 0 8 0;
#X connect 2 0 8 1;
#X connect 3 0 4 0;
#X connect 4 0 11 0;
#X connect 5 0 6 0;
#X connect 5 0 12 0;
#X connect 6 0 7 0;
#X connect 7 0 4 1;
#X connect 8 0 3 1;
#X connect 10 0 16 0;
#X connect 13 0 15 0;
#X connect 14 0 5 0;
#X connect 15 0 0 0;
#X connect 15 0 1 0;
#X connect 16 0 5 0;
#X connect 17 0 2 0;
#X coords 0 -1 1 1 160 40 1 220 100;
