#N canvas 515 171 507 565 10;
#X obj 9 349 pix_crop 20 20 0 0;
#X floatatom 32 280 5 0 0 1 w - -;
#X floatatom 49 308 5 0 0 1 h - -;
#X floatatom 87 290 5 0 0 1 x - -;
#X floatatom 132 289 5 0 0 1 y - -;
#X obj 29 135 pix_info . . . .;
#X floatatom 35 160 5 0 0 1 w - -;
#X floatatom 79 161 5 0 0 1 h - -;
#X floatatom 178 166 4 0 0 3 x - -;
#X obj 36 229 *;
#X obj 87 230 *;
#X floatatom 207 166 4 0 0 3 y - -;
#X floatatom 235 166 4 0 0 3 w - -;
#X floatatom 263 167 4 0 0 3 h - -;
#X obj 61 229 *;
#X obj 112 230 *;
#X obj 8 6 inlet gemlist;
#X obj 9 375 outlet gemlist;
#X obj 114 7 inlet x [0-1];
#X obj 189 29 inlet y [0-1];
#X obj 161 86 \$1;
#X obj 222 87 \$2;
#X obj 288 87 \$3;
#X obj 352 89 \$4;
#X obj 235 52 loadbang;
#X obj 12 104 si_gem_switch2;
#X obj 101 450 pix_rectangle;
#X msg 224 447 1 0 0;
#X obj 138 419 pack f f f f;
#X obj 177 364 +;
#X obj 206 363 +;
#X obj 101 477 outlet view_crop;
#X obj 223 420 loadbang;
#X obj 273 7 inlet w [0-1];
#X obj 336 30 inlet h [0-1];
#X floatatom 252 397 5 0 0 0 - - -;
#X floatatom 288 397 5 0 0 0 - - -;
#X obj 31 187 t b f;
#X obj 72 187 t b f;
#X obj 4 55 si_pass2;
#X obj 398 4 inlet show;
#X obj 152 168 tgl 15 0 empty empty empty 17 7 0 10 -262144 -1 -1 0
1;
#X obj 106 101 change;
#X obj 82 32 invert;
#X obj 106 80 invert;
#X connect 0 0 17 0;
#X connect 1 0 0 1;
#X connect 1 0 29 1;
#X connect 2 0 0 2;
#X connect 2 0 30 1;
#X connect 3 0 0 3;
#X connect 3 0 28 0;
#X connect 3 0 29 0;
#X connect 4 0 0 4;
#X connect 4 0 30 0;
#X connect 4 0 28 1;
#X connect 5 1 6 0;
#X connect 5 2 7 0;
#X connect 6 0 37 0;
#X connect 7 0 15 1;
#X connect 7 0 38 0;
#X connect 8 0 9 0;
#X connect 9 0 3 0;
#X connect 10 0 1 0;
#X connect 11 0 14 0;
#X connect 12 0 10 0;
#X connect 13 0 15 0;
#X connect 14 0 4 0;
#X connect 15 0 2 0;
#X connect 16 0 39 0;
#X connect 16 0 39 1;
#X connect 18 0 8 0;
#X connect 19 0 11 0;
#X connect 20 0 8 0;
#X connect 21 0 11 0;
#X connect 22 0 12 0;
#X connect 23 0 13 0;
#X connect 24 0 20 0;
#X connect 24 0 21 0;
#X connect 24 0 22 0;
#X connect 24 0 23 0;
#X connect 25 0 5 0;
#X connect 25 0 0 0;
#X connect 25 1 26 0;
#X connect 26 0 31 0;
#X connect 27 0 26 2;
#X connect 28 0 26 1;
#X connect 29 0 35 0;
#X connect 29 0 28 2;
#X connect 30 0 36 0;
#X connect 30 0 28 3;
#X connect 32 0 27 0;
#X connect 33 0 12 0;
#X connect 34 0 13 0;
#X connect 37 0 9 0;
#X connect 37 0 10 0;
#X connect 37 1 9 1;
#X connect 37 1 10 1;
#X connect 38 0 14 0;
#X connect 38 0 15 0;
#X connect 38 1 15 1;
#X connect 38 1 14 1;
#X connect 39 0 5 0;
#X connect 39 0 0 0;
#X connect 39 1 25 0;
#X connect 39 2 44 0;
#X connect 40 0 41 0;
#X connect 41 0 43 0;
#X connect 42 0 41 0;
#X connect 43 0 39 2;
#X connect 44 0 42 0;
#X coords 0 -1 1 1 142 45 1 150 150;
