#N canvas 231 53 383 440 10;
#X msg 222 73 10;
#X obj 182 3 inlet min;
#X obj 276 4 inlet max;
#X floatatom 182 99 5 0 0 0 - - -;
#X floatatom 275 98 5 0 0 0 - - -;
#X msg 318 74 25;
#X obj 229 123 -;
#X floatatom 229 144 5 0 0 1 (max-min) - -;
#X obj 229 195 + 1;
#X obj 178 239 random 10;
#X floatatom 229 216 5 0 0 1 (max-min)+1 - -;
#X obj 178 341 +;
#X floatatom 178 313 5 0 0 0 - - -;
#X floatatom 178 368 5 0 0 1 [min..max] - -;
#X obj 96 4 inlet genera;
#X obj 96 71 bng 15 250 50 0 empty empty empty 17 7 0 10 -262144 -1
-1;
#X obj 193 51 \$1;
#X obj 289 53 \$2;
#X obj 220 25 loadbang;
#X obj 229 169 * 1000;
#X obj 178 264 / 1000;
#X obj 44 414 outlet valore int;
#X obj 178 414 outlet valore float;
#X obj 44 391 int;
#X connect 0 0 3 0;
#X connect 1 0 3 0;
#X connect 2 0 4 0;
#X connect 3 0 6 1;
#X connect 3 0 11 1;
#X connect 4 0 6 0;
#X connect 5 0 4 0;
#X connect 6 0 7 0;
#X connect 7 0 19 0;
#X connect 8 0 10 0;
#X connect 9 0 20 0;
#X connect 10 0 9 1;
#X connect 11 0 13 0;
#X connect 12 0 11 0;
#X connect 13 0 22 0;
#X connect 13 0 23 0;
#X connect 14 0 15 0;
#X connect 15 0 9 0;
#X connect 16 0 3 0;
#X connect 17 0 4 0;
#X connect 18 0 16 0;
#X connect 18 0 17 0;
#X connect 19 0 8 0;
#X connect 20 0 12 0;
#X connect 23 0 21 0;
