#N canvas 24 53 285 301 10;
#X msg 97 176 -2;
#X obj 84 8 inlet quadrant[0-3];
#X obj 15 63 \$1;
#X obj -3 7 inlet gemlist;
#X obj -3 266 outlet gemlist;
#X obj 87 143 select 0 1 2 3;
#X floatatom 15 84 5 0 0 0 - - -;
#X obj -3 210 si_gem_textrect 2 2 2 2 0 1;
#X obj 50 35 loadbang;
#X floatatom 9 36 5 0 0 0 - - -;
#X msg 39 176 2;
#X msg 11 176 -2;
#X msg 67 176 2;
#X msg 154 176 -2;
#X msg 126 176 2;
#X obj 102 82 hradio 15 1 0 4 empty empty empty 0 -8 0 10 -262144 -1
-1 0;
#X connect 0 0 7 3;
#X connect 0 0 7 4;
#X connect 1 0 2 0;
#X connect 2 0 6 0;
#X connect 3 0 7 0;
#X connect 5 0 11 0;
#X connect 5 0 10 0;
#X connect 5 1 12 0;
#X connect 5 2 0 0;
#X connect 5 3 14 0;
#X connect 5 3 13 0;
#X connect 6 0 15 0;
#X connect 7 0 4 0;
#X connect 8 0 2 0;
#X connect 9 0 2 0;
#X connect 10 0 7 4;
#X connect 11 0 7 3;
#X connect 12 0 7 3;
#X connect 12 0 7 4;
#X connect 13 0 7 4;
#X connect 14 0 7 3;
#X connect 15 0 5 0;
#X coords 0 -1 1 1 85 35 1 100 65;
